<svg width="17" height="17" viewBox="0 0 17 17" fill="none" xmlns="http://www.w3.org/2000/svg">
<circle cx="8.5" cy="8.5" r="8.5" fill="#133E71"/>
<path d="M7.9032 8.73947C8.39668 7.78842 9.34519 7.22737 9.89635 6.38579C10.4796 5.50316 10.1527 3.85421 8.49922 3.85421C7.41613 3.85421 6.8842 4.73 6.65989 5.45526L5 4.70947C5.45503 3.25211 6.69193 2 8.49281 2C9.99889 2 11.0307 2.73211 11.5562 3.64895C12.0049 4.43579 12.2676 5.90684 11.5755 7.00158C10.8064 8.21263 10.0694 8.58211 9.67204 9.36211C9.51182 9.67684 9.44773 9.88211 9.44773 10.8947H7.59558C7.58917 10.3611 7.51226 9.49211 7.9032 8.73947ZM9.78099 13.6316C9.78099 14.3842 9.20419 15 8.49922 15C7.79425 15 7.21746 14.3842 7.21746 13.6316C7.21746 12.8789 7.79425 12.2632 8.49922 12.2632C9.20419 12.2632 9.78099 12.8789 9.78099 13.6316Z" fill="white"/>
</svg>
